# xmcd
#
# Track frame offsets: 
#        150
#        21000
#        37550
#        57762
#        79957
#        100907
#        119050
#        137785
#        153522
#        175842
#        192162
#        215667
#
# Disc length: 3095 seconds
#
# Revision: 3
# Processed by: cddbd v1.5.1PL0 Copyright (c) Steve Scherf et al.
# Submitted via: ExactAudioCopy v0.95a5
#
DISCID=9f0c150c
DTITLE=Cheri Knight - The Northeast Kingdom
DYEAR=1998
DGENRE=Rock
TTITLE0=Dar Glasgow
TTITLE1=Rose In The Vine
TTITLE2=If Wishes Were Horses
TTITLE3=Northeast Kingdom
TTITLE4=Black Eyed Susie
TTITLE5=Crawling
TTITLE6=The Hatfield Side
TTITLE7=White Lies
TTITLE8=Dead Man's Curve
TTITLE9=All Blue
TTITLE10=Sweetheart
TTITLE11=Black Eyed Susie Reprise
EXTD=
EXTT0=
EXTT1=
EXTT2=
EXTT3=
EXTT4=
EXTT5=
EXTT6=
EXTT7=
EXTT8=
EXTT9=
EXTT10=
EXTT11=
PLAYORDER=
